<mxfile host="app.diagrams.net" modified="2022-01-21T19:06:04.347Z" agent="5.0 (Windows NT 10.0; Win64; x64) AppleWebKit/537.36 (KHTML, like Gecko) Chrome/97.0.4692.71 Safari/537.36" etag="563z8rw_wESm01Lvm4CO" version="15.7.4" type="github">
  <diagram id="uVic-9McOt_YPbiTqcLM" name="Page-1">
    <mxGraphModel dx="1422" dy="762" grid="1" gridSize="10" guides="1" tooltips="1" connect="1" arrows="1" fold="1" page="1" pageScale="1" pageWidth="827" pageHeight="1169" math="0" shadow="0">
      <root>
        <mxCell id="0" />
        <mxCell id="1" parent="0" />
        <mxCell id="WR9fMTzMaIY44qxfxqCi-29" value="" style="edgeStyle=orthogonalEdgeStyle;rounded=0;orthogonalLoop=1;jettySize=auto;html=1;fontSize=18;" edge="1" parent="1" source="WR9fMTzMaIY44qxfxqCi-4" target="WR9fMTzMaIY44qxfxqCi-9">
          <mxGeometry relative="1" as="geometry">
            <Array as="points">
              <mxPoint x="403" y="130" />
              <mxPoint x="403" y="130" />
            </Array>
          </mxGeometry>
        </mxCell>
        <object label="&lt;h1&gt;&lt;font style=&quot;font-size: 18px&quot;&gt;Debut&lt;/font&gt;&lt;/h1&gt;" id="WR9fMTzMaIY44qxfxqCi-4">
          <mxCell style="ellipse;whiteSpace=wrap;html=1;" vertex="1" parent="1">
            <mxGeometry x="343.75" y="10" width="120" height="90" as="geometry" />
          </mxCell>
        </object>
        <mxCell id="WR9fMTzMaIY44qxfxqCi-15" style="edgeStyle=orthogonalEdgeStyle;rounded=0;orthogonalLoop=1;jettySize=auto;html=1;exitX=0.5;exitY=1;exitDx=0;exitDy=0;fontSize=18;" edge="1" parent="1" source="WR9fMTzMaIY44qxfxqCi-6" target="WR9fMTzMaIY44qxfxqCi-14">
          <mxGeometry relative="1" as="geometry" />
        </mxCell>
        <mxCell id="WR9fMTzMaIY44qxfxqCi-6" value="Si le nombre de caractères dans la barre de recherche principale est &amp;gt; 2" style="rounded=0;whiteSpace=wrap;html=1;fontSize=18;" vertex="1" parent="1">
          <mxGeometry x="231.25" y="250" width="342.5" height="60" as="geometry" />
        </mxCell>
        <mxCell id="WR9fMTzMaIY44qxfxqCi-18" style="edgeStyle=orthogonalEdgeStyle;rounded=0;orthogonalLoop=1;jettySize=auto;html=1;exitX=0.5;exitY=1;exitDx=0;exitDy=0;fontSize=18;" edge="1" parent="1" source="WR9fMTzMaIY44qxfxqCi-9">
          <mxGeometry relative="1" as="geometry">
            <mxPoint x="403" y="250" as="targetPoint" />
          </mxGeometry>
        </mxCell>
        <mxCell id="WR9fMTzMaIY44qxfxqCi-9" value="Affichage de l&#39;ensemble des recettes disponible" style="shape=parallelogram;perimeter=parallelogramPerimeter;whiteSpace=wrap;html=1;fixedSize=1;fontSize=18;" vertex="1" parent="1">
          <mxGeometry x="231.25" y="150" width="342.5" height="60" as="geometry" />
        </mxCell>
        <mxCell id="WR9fMTzMaIY44qxfxqCi-20" style="edgeStyle=orthogonalEdgeStyle;rounded=0;orthogonalLoop=1;jettySize=auto;html=1;fontSize=18;" edge="1" parent="1" source="WR9fMTzMaIY44qxfxqCi-14">
          <mxGeometry relative="1" as="geometry">
            <mxPoint x="640" y="495" as="targetPoint" />
          </mxGeometry>
        </mxCell>
        <mxCell id="WR9fMTzMaIY44qxfxqCi-22" style="edgeStyle=orthogonalEdgeStyle;rounded=0;orthogonalLoop=1;jettySize=auto;html=1;exitX=0.5;exitY=1;exitDx=0;exitDy=0;fontSize=18;" edge="1" parent="1" source="WR9fMTzMaIY44qxfxqCi-14">
          <mxGeometry relative="1" as="geometry">
            <mxPoint x="403" y="690" as="targetPoint" />
          </mxGeometry>
        </mxCell>
        <mxCell id="WR9fMTzMaIY44qxfxqCi-14" value="L&#39;algorithme va filtrer&lt;br&gt;&amp;nbsp;les recettes à &lt;br&gt;chaque saisi&amp;nbsp;par rapport &lt;br&gt;au ingredient,le titre &lt;br&gt;et la description&lt;br&gt;&amp;nbsp;de la recette" style="rhombus;whiteSpace=wrap;html=1;fontSize=18;" vertex="1" parent="1">
          <mxGeometry x="238.75" y="360" width="327.5" height="270" as="geometry" />
        </mxCell>
        <mxCell id="WR9fMTzMaIY44qxfxqCi-21" value="Non&lt;br&gt;" style="text;html=1;align=center;verticalAlign=middle;resizable=0;points=[];autosize=1;strokeColor=none;fillColor=none;fontSize=18;" vertex="1" parent="1">
          <mxGeometry x="575" y="465" width="50" height="30" as="geometry" />
        </mxCell>
        <mxCell id="WR9fMTzMaIY44qxfxqCi-23" value="Oui" style="text;html=1;align=center;verticalAlign=middle;resizable=0;points=[];autosize=1;strokeColor=none;fillColor=none;fontSize=18;" vertex="1" parent="1">
          <mxGeometry x="414" y="650" width="40" height="30" as="geometry" />
        </mxCell>
        <mxCell id="WR9fMTzMaIY44qxfxqCi-30" style="edgeStyle=orthogonalEdgeStyle;rounded=0;orthogonalLoop=1;jettySize=auto;html=1;exitX=0.5;exitY=1;exitDx=0;exitDy=0;fontSize=18;" edge="1" parent="1" source="WR9fMTzMaIY44qxfxqCi-24">
          <mxGeometry relative="1" as="geometry">
            <mxPoint x="460" y="870" as="targetPoint" />
          </mxGeometry>
        </mxCell>
        <mxCell id="WR9fMTzMaIY44qxfxqCi-24" value="Liste de recettes actualisée par rapport a la saisie dans l&#39;input" style="rounded=0;whiteSpace=wrap;html=1;fontSize=18;" vertex="1" parent="1">
          <mxGeometry x="247.5" y="690" width="310" height="60" as="geometry" />
        </mxCell>
        <mxCell id="WR9fMTzMaIY44qxfxqCi-27" style="edgeStyle=orthogonalEdgeStyle;rounded=0;orthogonalLoop=1;jettySize=auto;html=1;exitX=0.5;exitY=1;exitDx=0;exitDy=0;fontSize=18;" edge="1" parent="1" source="WR9fMTzMaIY44qxfxqCi-26">
          <mxGeometry relative="1" as="geometry">
            <mxPoint x="720" y="570" as="targetPoint" />
          </mxGeometry>
        </mxCell>
        <mxCell id="WR9fMTzMaIY44qxfxqCi-26" value="Aucun résultat&amp;nbsp;" style="rounded=0;whiteSpace=wrap;html=1;fontSize=18;" vertex="1" parent="1">
          <mxGeometry x="640" y="457.5" width="170" height="75" as="geometry" />
        </mxCell>
        <mxCell id="WR9fMTzMaIY44qxfxqCi-31" style="edgeStyle=orthogonalEdgeStyle;rounded=0;orthogonalLoop=1;jettySize=auto;html=1;exitX=0.5;exitY=1;exitDx=0;exitDy=0;fontSize=18;" edge="1" parent="1" source="WR9fMTzMaIY44qxfxqCi-28">
          <mxGeometry relative="1" as="geometry">
            <mxPoint x="460" y="870" as="targetPoint" />
          </mxGeometry>
        </mxCell>
        <mxCell id="WR9fMTzMaIY44qxfxqCi-28" value="Message d&#39;erreur qui indique de recommencer une nouvelle recherche" style="rounded=0;whiteSpace=wrap;html=1;fontSize=18;" vertex="1" parent="1">
          <mxGeometry x="610" y="570" width="210" height="80" as="geometry" />
        </mxCell>
        <mxCell id="WR9fMTzMaIY44qxfxqCi-32" value="Fin" style="ellipse;whiteSpace=wrap;html=1;fontSize=18;" vertex="1" parent="1">
          <mxGeometry x="400" y="870" width="120" height="80" as="geometry" />
        </mxCell>
      </root>
    </mxGraphModel>
  </diagram>
</mxfile>
